Coordinates
version=1
nRows=14
nColumns=33
inDegrees=yes

Units are S.I. units (second, meters, Newtons, ...)
Angles are in degrees.

endheader
time	ground_thorax_rot_x	ground_thorax_rot_y	ground_thorax_rot_z	ground_thorax_tx	ground_thorax_ty	ground_thorax_tz	clav_prot_r	clav_elev_r	scapula_abduction_r	scapula_elevation_r	scapula_upward_rot_r	scapula_winging_r	shoulder_elv_r	plane_of_elev_r	axial_rot_r	elbow_flexion_r	pro_sup_r	wrist_flex_r	wrist_dev_r	clav_prot_l	clav_elev_l	scapula_abduction_l	scapula_elevation_l	scapula_upward_rot_l	scapula_winging_l	shoulder_elv_l	plane_of_elev_l	axial_rot_l	elbow_flexion_l	pro_sup_l	wrist_flex_l	wrist_dev_l
      1.96000000	      0.95732463	     -0.86123208	     -8.05040910	     -0.08230023	      1.05126383	      0.00133945	    -13.60176771	     -3.56821378	    -10.57149298	     -0.61782852	     14.50891006	     -2.87394682	     65.92407708	    -43.84787983	     66.67736248	     87.00897670	      3.94757849	     18.20205803	     14.40082685	     -7.70010416	     -3.16096519	      5.84982046	     -3.58686711	      0.45451372	     -0.06497443	     59.62937896	    -48.94761111	    -43.67451027	     80.81438537	    -16.90781287	     -0.61701726	    -21.25966188
      1.97000000	      0.81112271	     -0.92513134	     -7.98777473	     -0.08279274	      1.05053174	      0.00115144	    -13.36182894	     -3.47587164	    -10.29992862	     -0.46089018	     14.29510338	     -2.88081507	     65.18679763	    -43.03788783	     65.52579449	     87.14094615	      1.98315245	     17.59268341	     14.02186827	     -7.47402790	     -3.08184842	      5.64171359	     -3.81742353	      0.02468314	     -0.08580345	     58.87053907	    -47.49442969	    -42.05958361	     80.81005177	    -19.05717669	     -0.72029275	    -19.33313099
      1.98000000	      0.74756765	     -0.80596796	     -7.96779554	     -0.08292472	      1.05063255	      0.00110670	    -13.31144952	     -3.66830186	    -10.22114784	     -0.59712566	     14.19799731	     -2.80096051	     64.47224965	    -42.50400228	     64.36698827	     86.96654147	      0.12625644	     17.22612089	     13.74601816	     -7.31187337	     -3.47086497	      5.33404907	     -3.53748310	     -0.15440301	     -0.14856405	     58.39996312	    -46.26354434	    -40.94761619	     80.47911523	    -20.59862203	     -0.70618288	    -18.12862698
      1.99000000	      0.71791405	     -0.74411293	     -7.95313401	     -0.08309721	      1.05052414	      0.00097515	    -13.20505717	     -3.84451255	    -10.06481386	     -0.70837972	     14.07159198	     -2.72883252	     63.75989069	    -41.84686638	     63.22410454	     86.73709827	     -1.49766968	     16.83470744	     13.34505035	     -7.17022039	     -3.86113160	      5.07915478	     -3.26655637	     -0.36765935	     -0.23342137	     57.88009868	    -44.98791772	    -39.77200319	     80.06232446	    -21.79182181	     -0.69744116	    -16.83599159
      2.00000000	      0.66164175	     -0.65284646	     -7.92296478	     -0.08327621	      1.05043187	      0.00078458	    -13.08925699	     -4.05520095	     -9.92586505	     -0.82594008	     13.87251835	     -2.63046278	     62.90296091	    -41.15361331	     61.93826386	     86.30344682	     -3.16385708	     16.41461836	     12.91525078	     -7.00127513	     -4.25254565	      4.78313880	     -3.00070823	     -0.59288630	     -0.31433962	     57.38892827	    -43.67558292	    -38.58437256	     79.55492418	    -22.84540266	     -0.64448842	    -15.39591396
      2.01000000	      0.59896975	     -0.58602170	     -7.90108560	     -0.08351941	      1.05027447	      0.00055466	    -12.95567503	     -4.27955392	     -9.76786492	     -0.94671157	     13.63869787	     -2.52407264	     61.95215259	    -40.33815760	     60.59571879	     85.68066609	     -4.89082838	     15.96020555	     12.49198961	     -6.81379555	     -4.62923103	      4.46659681	     -2.75244129	     -0.83782632	     -0.39301801	     56.88774661	    -42.31183480	    -37.33553435	     78.98168218	    -23.78232359	     -0.59481714	    -13.84383094
      2.02000000	      0.55331918	     -0.48598415	     -7.85570998	     -0.08375402	      1.05011045	      0.00041625	    -12.82255915	     -4.48561740	     -9.67877970	     -1.02084138	     13.31226231	     -2.38823432	     60.85193608	    -39.46243979	     59.11074169	     84.81580573	     -6.91419840	     15.44398910	     12.09070632	     -6.60736332	     -5.00678809	      4.13708929	     -2.52245717	     -1.12657710	     -0.47631172	     56.34884532	    -40.84869135	    -35.97293479	     78.26881024	    -24.67733292	     -0.53318930	    -12.05666063
      2.03000000	      0.50661281	     -0.37744250	     -7.81809604	     -0.08398714	      1.04994989	      0.00018965	    -12.69596351	     -4.75208930	     -9.59612462	     -1.14059002	     12.95985009	     -2.23202921	     59.75371622	    -38.50731913	     57.62413231	     83.75429876	     -9.01740620	     14.90668775	     11.77177228	     -6.38923125	     -5.39947825	      3.78671092	     -2.27932769	     -1.41798648	     -0.56156404	     55.82822103	    -39.34979791	    -34.63167777	     77.46436818	    -25.40973296	     -0.46534381	    -10.25848730
      2.04000000	      0.46892632	     -0.27741140	     -7.78673883	     -0.08421121	      1.04979907	     -0.00001348	    -12.57012132	     -5.05956069	     -9.54011428	     -1.27625248	     12.54601031	     -2.04791157	     58.65601152	    -37.46054730	     56.08759173	     82.53245932	    -11.18778923	     14.32908855	     11.52921328	     -6.16710263	     -5.81542417	      3.43623635	     -2.02301142	     -1.72754707	     -0.65759954	     55.31320798	    -37.80117677	    -33.27549381	     76.49532202	    -26.01827321	     -0.34949021	     -8.38586412
      2.05000000	      0.43776463	     -0.15665141	     -7.74189615	     -0.08444838	      1.04965451	     -0.00023721	    -12.43954020	     -5.39658024	     -9.50697934	     -1.41788523	     12.06240627	     -1.83420946	     57.56902129	    -36.33922376	     54.52611367	     81.12176883	    -13.43126685	     13.68742101	     11.39535380	     -5.94107500	     -6.24119616	      3.08255281	     -1.76112428	     -2.05286654	     -0.75940379	     54.81553057	    -36.17729436	    -31.87920705	     75.37456728	    -26.52998263	     -0.13488799	     -6.43756332
      2.06000000	      0.42851496	     -0.03021328	     -7.69063568	     -0.08469047	      1.04951686	     -0.00044612	    -12.31211504	     -5.76129198	     -9.50063188	     -1.56747767	     11.52846936	     -1.59809272	     56.51737886	    -35.15025575	     52.93362622	     79.54448183	    -15.79928904	     12.98372837	     11.39772084	     -5.69835360	     -6.68880231	      2.71439523	     -1.49440232	     -2.41626860	     -0.87141606	     54.32436399	    -34.48972989	    -30.44496591	     74.06079614	    -26.93919025	      0.21829599	     -4.43399022
      2.07000000	      0.42525460	      0.09241246	     -7.64137098	     -0.08491238	      1.04941540	     -0.00063975	    -12.18370309	     -6.18312217	     -9.50872881	     -1.74896385	     10.94060205	     -1.32997544	     55.50861872	    -33.90406120	     51.29740886	     77.80366110	    -18.14841465	     12.21378018	     11.51953168	     -5.45512425	     -7.16722090	      2.35041391	     -1.20733825	     -2.79778860	     -0.99916559	     53.85796889	    -32.76151814	    -28.98555001	     72.54209773	    -27.20610976	      0.70545368	     -2.48639980
      2.08000000	      0.44585428	      0.23247262	     -7.56613728	     -0.08512685	      1.04934591	     -0.00082546	    -12.05394338	     -6.61473092	     -9.53621556	     -1.92623414	     10.30605592	     -1.04399536	     54.54506038	    -32.62020862	     49.62455842	     75.90691102	    -20.48081957	     11.37535290	     11.78208033	     -5.20617286	     -7.68081455	      1.98517966	     -0.89785193	     -3.21095914	     -1.14445188	     53.41512962	    -30.99423929	    -27.49939845	     70.80526190	    -27.28092102	      1.33930057	     -0.61957845
      2.09000000	      0.47302598	      0.34760316	     -7.51233153	     -0.08538590	      1.04928754	     -0.00098177	    -11.91120878	     -7.09672829	     -9.53820874	     -2.13869007	      9.65579414	     -0.73928368	     53.63048611	    -31.28626786	     47.91137612	     73.86697963	    -22.63878267	     10.48791300	     12.14043849	     -4.94482122	     -8.24685514	      1.59917285	     -0.54834417	     -3.63568028	     -1.30688470	     53.02534408	    -29.21057119	    -26.04818024	     68.81369020	    -27.10626936	      2.07398120	      1.05152706
